<svg width="161" height="60" viewBox="0 0 161 60" fill="none" xmlns="http://www.w3.org/2000/svg">
<path d="M69.848 57.2687V59.3017C69.848 59.6875 69.5325 59.9898 69.1539 59.9898H51.8343C51.4452 59.9898 51.1402 59.677 51.1402 59.3017V25.6162L35.2718 41.3486L19.4033 25.6162V59.3121C19.4033 59.6979 19.0878 60.0002 18.7093 60.0002H1.37911C0.990019 60.0002 0.685059 59.6875 0.685059 59.3121V0.698767C0.685059 0.323441 1.00053 0.0106699 1.37911 0.0106699H19.7503C19.9291 0.0106699 20.1184 0.0940756 20.2446 0.219184L35.2718 15.1175L50.299 0.208758C50.4251 0.0732242 50.6039 0.000244141 50.7932 0.000244141H69.1539C69.543 0.000244141 69.848 0.313016 69.848 0.688341V2.67965C67.7658 3.96202 65.8204 5.48417 64.0537 7.25654C57.5128 13.7413 54.0741 22.7179 54.5999 31.8821C55.2204 42.558 61.1934 51.8786 69.848 57.2583V57.2687Z" fill="#FAFAFA"/>
<path d="M103.562 46.666C102.436 45.5609 102.436 43.7468 103.562 42.6312L116.307 29.9953L103.562 17.3593C103.015 16.8276 102.72 16.1082 102.72 15.3471C102.72 14.5861 103.015 13.8667 103.562 13.335L115.813 1.18902C116.202 0.803268 116.685 0.563477 117.201 0.45922C117.106 0.198577 116.854 0.000488281 116.559 0.000488281H99.229C98.84 0.000488281 98.535 0.31326 98.535 0.688586V2.22117L97.0733 1.71031C93.8449 0.573903 90.4588 0.000488281 86.9886 0.000488281C81.657 0.000488281 76.5358 1.36626 72.035 3.91013C71.6669 4.11865 71.2989 4.33759 70.9413 4.56695C70.5733 4.78589 70.2052 5.02568 69.8477 5.2759C68.3334 6.30805 66.9138 7.48615 65.5888 8.79979C59.4896 14.8467 56.2717 23.2186 56.7765 31.7781C57.3233 41.2655 62.4024 49.5852 69.8477 54.6834C70.2052 54.9336 70.5628 55.1734 70.9413 55.4027C71.2989 55.6217 71.6564 55.8406 72.035 56.0387C76.2729 58.4575 81.1417 59.8754 86.305 59.9901C90.0171 60.0735 93.6451 59.5 97.0733 58.2907L98.535 57.7798V59.302C98.535 59.6877 98.8505 59.9901 99.229 59.9901H116.559C116.854 59.9901 117.117 59.8024 117.201 59.5417C116.685 59.4375 116.202 59.1768 115.813 58.812L103.562 46.666ZM95.1489 38.0856C92.9721 40.2437 90.0697 41.4323 86.9991 41.4323C80.637 41.4323 75.4632 36.3028 75.4632 29.9953C75.4632 26.9405 76.662 24.063 78.8387 21.9049C81.0155 19.7468 83.9074 18.5583 86.9991 18.5583C90.0907 18.5583 92.9721 19.7468 95.1489 21.9049C97.3257 24.063 98.535 26.9405 98.535 29.9953C98.535 33.05 97.3257 35.9275 95.1594 38.0856H95.1489Z" fill="#FAFAFA"/>
<path d="M160.137 44.1633C160.411 44.4343 160.411 44.8722 160.137 45.1329L147.886 57.2788C147.623 57.5499 147.171 57.5499 146.908 57.2788L132.628 43.1207L119.441 56.1945L118.347 57.2788C118.074 57.5499 117.621 57.5499 117.359 57.2788L105.108 45.1329C104.834 44.8618 104.834 44.4239 105.108 44.1633L117.253 32.1111L119.388 29.9947L105.108 15.8366C104.981 15.7115 104.908 15.5342 104.908 15.3466C104.908 15.1589 104.981 14.9921 105.108 14.867L117.253 2.81488L117.359 2.71062C117.621 2.44998 118.074 2.44998 118.347 2.71062L119.441 3.79489L132.628 16.8792L146.908 2.71062C147.171 2.44998 147.623 2.44998 147.897 2.71062L160.148 14.8566C160.421 15.1276 160.421 15.5655 160.148 15.8262L145.867 29.9843L160.148 44.1528L160.137 44.1633Z" fill="#FFB703"/>
</svg>
