<svg width="57" height="56" viewBox="0 0 57 56" fill="none" xmlns="http://www.w3.org/2000/svg">
<path d="M56.1371 42.1633C56.4105 42.4343 56.4105 42.8722 56.1371 43.1329L43.8861 55.2788C43.6232 55.5499 43.171 55.5499 42.9081 55.2788L28.6276 41.1207L15.4406 54.1945L14.347 55.2788C14.0736 55.5499 13.6214 55.5499 13.3585 55.2788L1.10753 43.1329C0.834113 42.8618 0.834113 42.4239 1.10753 42.1633L13.2534 30.1111L15.3881 27.9947L1.10753 13.8366C0.981335 13.7115 0.907721 13.5342 0.907721 13.3466C0.907721 13.1589 0.981335 12.9921 1.10753 12.867L13.2534 0.814876L13.3585 0.710619C13.6214 0.449976 14.0736 0.449976 14.347 0.710619L15.4406 1.79489L28.6276 14.8792L42.9081 0.710619C43.171 0.449976 43.6232 0.449976 43.8966 0.710619L56.1476 12.8566C56.421 13.1276 56.421 13.5655 56.1476 13.8262L41.867 27.9843L56.1476 42.1528L56.1371 42.1633Z" fill="#FFB703"/>
</svg>
