<svg width="31" height="30" viewBox="0 0 31 30" fill="none" xmlns="http://www.w3.org/2000/svg">
<g clip-path="url(#clip0_384_331)">
<path d="M29.2542 11.5204H1.74576C3.51781 5.60215 9.00523 1.28906 15.5 1.28906C21.9948 1.28906 27.4822 5.60215 29.2542 11.5204Z" fill="#FFDFBA"/>
<path d="M15.2515 11.9344V8.32612C15.2515 7.94608 15.5663 7.63794 15.9546 7.63794C16.3429 7.63794 16.6577 7.94603 16.6577 8.32612V11.9344H15.2515Z" fill="#3B6B7B"/>
<path d="M18.8076 8.66415H15.5445C15.4668 8.66415 15.3922 8.63329 15.3373 8.57834C15.2824 8.5234 15.2515 8.44888 15.2515 8.37118V6.97038C15.2515 6.26603 15.7413 5.66134 16.4176 5.53091L17.6395 5.29167C17.6417 5.29126 17.6729 5.28997 17.6752 5.28956C18.2642 5.17993 18.8076 5.63503 18.8076 6.23415V8.66415Z" fill="#126783"/>
<path d="M22.5157 8.66417H16.9225C16.7601 8.66399 16.6284 8.53292 16.6284 8.3712V6.36583L16.6285 6.35511C16.6321 5.84434 17.0102 5.41186 17.5142 5.31559L17.6441 5.29075C17.8592 5.24966 18.0759 5.21828 18.2938 5.19671H18.2939C18.9907 5.12761 19.6938 5.15928 20.3816 5.29075L21.6385 5.53087C22.318 5.66136 22.8101 6.26598 22.8101 6.97034V8.37114C22.8101 8.53298 22.6783 8.66417 22.5157 8.66417Z" fill="#126783"/>
<path d="M21.4038 11.9344V8.32612C21.4038 7.94608 21.7187 7.63794 22.107 7.63794C22.4953 7.63794 22.8101 7.94603 22.8101 8.32612V11.9344H21.4038Z" fill="#3B6B7B"/>
<path d="M21.4331 6.88159V13.1897H16.6284V6.88159H21.4331Z" fill="#126783"/>
<path d="M21.1877 2.15689V2.83271C21.1877 3.77771 20.5799 4.58074 19.7339 4.87236V5.60502C19.7339 5.99332 19.4191 6.30814 19.0308 6.30814C18.6425 6.30814 18.3277 5.99332 18.3277 5.60502V4.87236C17.4817 4.5808 16.8739 3.77777 16.8739 2.83271V2.15689C16.8739 0.965684 17.8396 0 19.0308 0C20.222 0 21.1877 0.965684 21.1877 2.15689Z" fill="#BB5D4C"/>
<path d="M21.2073 2.11094V2.87857C21.2073 3.7948 20.5675 4.58031 19.7339 4.87229C18.9004 4.58031 18.3277 3.7948 18.3277 2.87857V2.11094C18.3277 1.19471 18.9241 0.417461 19.7576 0.125488C20.5913 0.41752 21.2073 1.19471 21.2073 2.11094Z" fill="#C96E59"/>
<path d="M15.2515 9.84912C15.2515 9.46082 15.5596 9.146 15.9397 9.146H18.7961C19.1762 9.146 19.4843 9.46082 19.4843 9.84912C19.4843 10.2374 19.1762 10.5522 18.7961 10.5522H15.9397C15.5596 10.5522 15.2515 10.2374 15.2515 9.84912Z" fill="#3B6B7B"/>
<path d="M22.1018 10.5522H19.2453C18.8652 10.5522 18.5571 10.2374 18.5571 9.84912C18.5571 9.46082 18.8652 9.146 19.2453 9.146H22.1018C22.4818 9.146 22.7899 9.46082 22.7899 9.84912C22.7899 10.2374 22.4818 10.5522 22.1018 10.5522Z" fill="#3B6B7B"/>
<path d="M17.625 9.84917C17.625 9.66735 17.6926 9.50171 17.8034 9.37685C17.8113 9.36642 17.82 9.35646 17.8295 9.34696L18.3069 8.86954C18.3521 8.82433 18.4109 8.79514 18.4742 8.78643C18.5375 8.77771 18.602 8.78995 18.6577 8.82128C18.7134 8.85261 18.7574 8.90131 18.7828 8.95994C18.8083 9.01858 18.8139 9.08394 18.7988 9.14605H18.9015C19.2815 9.14605 19.5897 9.46087 19.5897 9.84917C19.5897 10.2375 19.2816 10.5523 18.9015 10.5523H18.3132C17.9331 10.5523 17.625 10.2375 17.625 9.84917Z" fill="#BB5D4C"/>
<path d="M19.8837 10.5523H19.2955C18.9154 10.5523 18.6073 10.2375 18.6073 9.84917C18.6073 9.46087 18.9154 9.14605 19.2955 9.14605H19.3982C19.383 9.08394 19.3886 9.01858 19.4141 8.95994C19.4396 8.90131 19.4835 8.85261 19.5392 8.82128C19.595 8.78995 19.6594 8.77771 19.7227 8.78643C19.7861 8.79514 19.8448 8.82433 19.89 8.86954L20.3674 9.34696C20.3769 9.35646 20.3857 9.36648 20.3936 9.37685C20.509 9.50707 20.5725 9.67518 20.5719 9.84917C20.5719 10.2375 20.2638 10.5523 19.8837 10.5523Z" fill="#C96E59"/>
<path d="M3.39195 8.66426V10.6032C3.39195 10.9833 3.07713 11.2914 2.68883 11.2914C2.30053 11.2914 1.9857 10.9833 1.9857 10.6032V8.66426C1.9857 8.28422 2.30053 7.97607 2.68883 7.97607C3.07713 7.97607 3.39195 8.28422 3.39195 8.66426ZM8.84117 7.97607C8.45287 7.97607 8.13805 8.28416 8.13805 8.66426V12.3081C8.13805 12.6882 8.45287 12.9963 8.84117 12.9963C9.22947 12.9963 9.5443 12.6882 9.5443 12.3081V8.66426C9.5443 8.28422 9.22947 7.97607 8.84117 7.97607Z" fill="#FFA78F"/>
<path d="M5.54182 8.66415H1.9857V6.97038C1.9857 6.26603 2.47549 5.66134 3.15178 5.53091L4.37375 5.29167C4.37592 5.29126 4.40715 5.28997 4.40937 5.28956C4.99836 5.17993 5.54182 5.63503 5.54182 6.23415V8.66415Z" fill="#D13A3A"/>
<path d="M9.5443 8.66417H3.65674C3.49432 8.66399 3.36266 8.53292 3.36266 8.3712V6.36583L3.36271 6.35511C3.36635 5.84434 3.74439 5.41186 4.24836 5.31559L4.37832 5.29075C4.59336 5.24966 4.81014 5.21828 5.02801 5.19671H5.02812C5.72491 5.12761 6.42801 5.15928 7.11576 5.29075L8.37271 5.53087C9.05223 5.66136 9.54435 6.26598 9.54435 6.97034V8.37114C9.5443 8.53298 9.70684 8.66417 9.5443 8.66417Z" fill="#D13A3A"/>
<path d="M8.16734 6.88159V13.1897H3.36266V6.88159H8.16734Z" fill="#D13A3A"/>
<path d="M8.13201 2.53175L8.01464 3.19732C7.86558 4.04259 7.24314 4.68543 6.46806 4.9014V5.605C6.46806 5.9933 6.15324 6.30812 5.76494 6.30812C5.37663 6.30812 5.06181 5.9933 5.06181 5.605V4.81457C4.14869 4.43564 3.58759 3.46228 3.76636 2.44826L3.88372 1.78269C4.09056 0.609585 5.20923 -0.173755 6.3824 0.03314C7.55556 0.239976 8.3389 1.35865 8.13201 2.53175Z" fill="#FFA78F"/>
<path d="M8.15083 2.49002L8.01758 3.246C7.8687 4.09033 7.21544 4.72291 6.41938 4.91814C6.36662 4.931 6.31178 4.93276 6.2583 4.92333C6.20483 4.9139 6.15389 4.89348 6.10872 4.86336C5.42745 4.40762 5.04131 3.59018 5.1902 2.7459L5.3235 1.98992C5.48258 1.08758 6.2054 0.425996 7.07698 0.283203C7.84719 0.715566 8.30997 1.58773 8.15083 2.49002Z" fill="#FFBFAB"/>
<path d="M11.4876 10.1167C11.4876 10.4403 11.2253 10.7026 10.9017 10.7026H6.11656C5.79295 10.7026 5.53062 10.4403 5.53062 10.1167C5.53062 9.79309 5.79295 9.53076 6.11656 9.53076H10.9017C11.2253 9.53076 11.4876 9.79309 11.4876 10.1167Z" fill="#ECECF1"/>
<path d="M6.74827 10.1885C6.69365 10.212 6.63482 10.2241 6.57536 10.2241C6.48932 10.2241 6.40517 10.1989 6.33333 10.1515C6.2615 10.1042 6.20514 10.0368 6.17124 9.95771L4.926 7.05211C4.90305 6.99903 4.8908 6.94194 4.88995 6.88412C4.88911 6.82629 4.89968 6.76887 4.92107 6.71514C4.94246 6.66142 4.97425 6.61244 5.0146 6.57102C5.05496 6.5296 5.10309 6.49655 5.15625 6.47377C5.2094 6.45099 5.26652 6.43892 5.32435 6.43826C5.38218 6.4376 5.43956 6.44836 5.49322 6.46992C5.54688 6.49149 5.59576 6.52343 5.63705 6.56392C5.67834 6.60441 5.71123 6.65265 5.73384 6.70588L6.97907 9.61148C7.02498 9.71861 7.02646 9.83958 6.98318 9.9478C6.93989 10.056 6.8554 10.1426 6.74827 10.1885Z" fill="#126783"/>
<path d="M2.1752 9.84155C2.1752 9.45325 2.48329 9.13843 2.86338 9.13843H5.71983C6.09993 9.13843 6.40801 9.45325 6.40801 9.84155C6.40801 10.2299 6.09993 10.5447 5.71983 10.5447H2.86338C2.48329 10.5447 2.1752 10.2299 2.1752 9.84155Z" fill="#FFA78F"/>
<path d="M5.06468 9.8416C5.06468 9.65979 5.13224 9.49414 5.24304 9.36928C5.25095 9.35885 5.25968 9.34889 5.26917 9.3394L5.7466 8.86197C5.79179 8.81676 5.85054 8.78757 5.91387 8.77886C5.9772 8.77014 6.04164 8.78239 6.09737 8.81371C6.1531 8.84504 6.19704 8.89374 6.22251 8.95237C6.24798 9.01101 6.25357 9.07637 6.23843 9.13848H6.34115C6.72119 9.13848 7.02933 9.4533 7.02933 9.8416C7.02933 10.2299 6.72124 10.5447 6.34115 10.5447H5.75287C5.37277 10.5447 5.06468 10.2299 5.06468 9.8416Z" fill="#FFBFAB"/>
<path d="M29.8555 11.9531V18.3691C29.8555 18.4468 29.8246 18.5214 29.7697 18.5763C29.7147 18.6312 29.6402 18.6621 29.5625 18.6621H15.6172V26.4258C15.6172 26.5035 15.5863 26.578 15.5314 26.6329C15.4764 26.6879 15.4019 26.7187 15.3242 26.7187L6.36477 26.4059C6.31098 26.3614 6.25754 26.3166 6.20439 26.2714C6.17785 26.2489 6.15137 26.5391 6.125 26.5163C3.07496 23.8839 1.14453 19.9896 1.14453 15.6445C1.14453 14.2621 1.33994 12.9253 1.70469 11.6602H29.5625C29.6402 11.6602 29.7147 11.691 29.7697 11.746C29.8246 11.8009 29.8555 11.8754 29.8555 11.9531Z" fill="#955B50"/>
<path d="M30.5 10.8105V11.9824C30.5 12.0601 30.4691 12.1346 30.4142 12.1896C30.3592 12.2445 30.2847 12.2754 30.207 12.2754H0.792969C0.715269 12.2754 0.640751 12.2445 0.585809 12.1896C0.530866 12.1346 0.5 12.0601 0.5 11.9824V10.8105C0.5 10.7328 0.530866 10.6583 0.585809 10.6034C0.640751 10.5484 0.715269 10.5176 0.792969 10.5176H30.207C30.2847 10.5176 30.3592 10.5484 30.4142 10.6034C30.4691 10.6583 30.5 10.7328 30.5 10.8105Z" fill="#AC695D"/>
<path d="M21.3424 15.3178V17.2567C21.3424 17.6368 21.0276 17.9449 20.6393 17.9449C20.251 17.9449 19.9361 17.6368 19.9361 17.2567V15.3178C19.9361 14.9378 20.251 14.6296 20.6393 14.6296C21.0276 14.6296 21.3424 14.9377 21.3424 15.3178ZM26.7916 14.6296C26.4033 14.6296 26.0885 14.9377 26.0885 15.3178V18.9617C26.0885 19.3417 26.4033 19.6498 26.7916 19.6498C27.1799 19.6498 27.4947 19.3417 27.4947 18.9617V15.3178C27.4947 14.9377 27.1799 14.6296 26.7916 14.6296Z" fill="#F6A96C"/>
<path d="M23.4923 12.8817V15.3178H19.9362V13.624C19.9362 12.9197 20.426 12.315 21.1023 12.1845L22.2689 11.9558L22.3598 11.9432C22.948 11.832 23.4923 12.2831 23.4923 12.8817Z" fill="#21BCA0"/>
<path d="M27.4947 15.3179H26.1178V19.8435H21.3131V13.0195L21.3131 13.0088C21.316 12.607 21.5506 12.2536 21.8959 12.0742C21.9895 12.0256 22.1169 12.1495 22.2244 12.129L22.4338 12.0766C22.649 12.0355 22.6611 12.0384 22.8789 12.0168L22.9911 12.0055C23.2299 11.9819 23.4578 11.9906 23.698 11.9906C24.1572 11.9906 24.5033 11.9493 24.9546 12.0355L25.2675 12.0953L25.6054 12.0474L26.323 12.1846C27.0025 12.315 27.4947 12.9197 27.4947 13.624L27.4947 15.3179Z" fill="#21BCA0"/>
<path d="M21.8216 12.0437L22.3288 11.9446C22.5438 11.9035 22.7606 11.8721 22.9785 11.8505H22.9786C23.6754 11.7814 24.3785 11.8131 25.0663 11.9446L25.6056 12.0476L23.9227 13.7304C23.8678 13.7853 23.7933 13.8162 23.7156 13.8162C23.6379 13.8162 23.5634 13.7853 23.5084 13.7304L21.8216 12.0437Z" fill="#ECECF1"/>
<path d="M26.0825 9.18556L25.9651 9.85113C25.8161 10.6964 25.1936 11.3392 24.4186 11.5552V12.2588C24.4186 12.6471 24.1037 12.9619 23.7154 12.9619C23.3271 12.9619 23.0123 12.6471 23.0123 12.2588V11.4684C22.0992 11.0894 21.5381 10.1161 21.7169 9.10207L21.8343 8.4365C22.0411 7.26339 23.1598 6.48005 24.3329 6.68695C25.5061 6.89373 26.2893 8.01246 26.0825 9.18556Z" fill="#F6A96C"/>
<path d="M26.1156 9.1306L25.9758 9.88979C25.8269 10.7341 25.1659 11.3764 24.3698 11.5717C24.317 11.5846 24.2622 11.5863 24.2087 11.5769C24.1553 11.5675 24.1043 11.5471 24.0591 11.5169C23.3779 11.0612 22.9917 10.2438 23.1406 9.39948L23.2739 8.64351C23.433 7.74116 24.1558 7.08005 25.0274 6.93726C25.7976 7.36956 26.2747 8.22825 26.1156 9.1306Z" fill="#FFBD86"/>
<path d="M29.4381 16.7705C29.4381 17.0941 29.1758 17.3564 28.8522 17.3564H24.067C23.7434 17.3564 23.481 17.0941 23.481 16.7705C23.481 16.4469 23.7434 16.1846 24.067 16.1846H28.8522C29.1758 16.1846 29.4381 16.4469 29.4381 16.7705Z" fill="#ECECF1"/>
<path d="M24.6988 16.8421C24.6441 16.8656 24.5853 16.8777 24.5258 16.8777C24.4398 16.8777 24.3557 16.8525 24.2838 16.8051C24.212 16.7578 24.1556 16.6904 24.1217 16.6113L22.8765 13.7057C22.8535 13.6526 22.8413 13.5955 22.8404 13.5377C22.8396 13.4799 22.8502 13.4224 22.8716 13.3687C22.8929 13.315 22.9247 13.266 22.9651 13.2246C23.0054 13.1832 23.0536 13.1501 23.1067 13.1273C23.1599 13.1046 23.217 13.0925 23.2748 13.0918C23.3327 13.0912 23.39 13.1019 23.4437 13.1235C23.4974 13.1451 23.5462 13.177 23.5875 13.2175C23.6288 13.258 23.6617 13.3062 23.6843 13.3594L24.9296 16.265C24.9755 16.3722 24.9769 16.4931 24.9337 16.6014C24.8904 16.7096 24.8059 16.7962 24.6988 16.8421Z" fill="#126783"/>
<path d="M20.1257 16.4954C20.1257 16.1071 20.4338 15.7922 20.8139 15.7922H23.6703C24.0504 15.7922 24.3585 16.1071 24.3585 16.4954C24.3585 16.8837 24.0504 17.1985 23.6703 17.1985H20.8139C20.4338 17.1985 20.1257 16.8837 20.1257 16.4954Z" fill="#F6A96C"/>
<path d="M23.0152 16.4954C23.0152 16.3136 23.0827 16.148 23.1935 16.0231C23.2014 16.0127 23.2102 16.0027 23.2197 15.9932L23.6971 15.5158C23.7423 15.4706 23.801 15.4414 23.8644 15.4327C23.9277 15.424 23.9921 15.4362 24.0479 15.4675C24.1036 15.4989 24.1475 15.5475 24.173 15.6062C24.1985 15.6648 24.2041 15.7302 24.1889 15.7923H24.2916C24.6717 15.7923 24.9798 16.1071 24.9798 16.4954C24.9798 16.8837 24.6717 17.1985 24.2916 17.1985H23.7034C23.3233 17.1985 23.0152 16.8837 23.0152 16.4954Z" fill="#FFBD86"/>
<path d="M9.15013 14.8747V18.9616C9.15013 19.3417 8.83531 19.6498 8.44701 19.6498C8.05871 19.6498 7.74388 19.3417 7.74388 18.9616V14.8747C7.74388 14.4947 8.05871 14.1865 8.44701 14.1865C8.83531 14.1865 9.15013 14.4946 9.15013 14.8747ZM14.5993 14.1865C14.211 14.1865 13.8962 14.4946 13.8962 14.8747V18.9616C13.8962 19.3417 14.211 19.6498 14.5993 19.6498C14.9877 19.6498 15.3025 19.3417 15.3025 18.9616V14.8747C15.3025 14.4946 14.9877 14.1865 14.5993 14.1865Z" fill="#D78878"/>
<path d="M11.3001 15.318H7.74394V13.6242C7.74394 12.9199 8.23373 12.3152 8.91002 12.1848L10.161 11.9446L10.1676 11.9434C10.7557 11.8323 11.3 12.2834 11.3 12.882L11.3001 15.318Z" fill="#FD9F02"/>
<path d="M15.3025 15.318H13.9255V19.8436H9.12083V13.0196L9.12089 13.0089C9.12453 12.4982 9.50257 12.0657 10.0065 11.9694L10.1365 11.9446C10.3515 11.9035 10.5683 11.8721 10.7862 11.8505H10.7863C11.4831 11.7814 12.1862 11.8131 12.8739 11.9446L14.1309 12.1847C14.8104 12.3152 15.3025 12.9198 15.3025 13.6241V15.318H15.3025Z" fill="#FD9F02"/>
<path d="M13.6801 8.81046V9.48628C13.6801 10.4313 13.0723 11.2343 12.2263 11.5259V12.2586C12.2263 12.6469 11.9115 12.9617 11.5232 12.9617C11.1349 12.9617 10.8201 12.6469 10.8201 12.2586V11.5259C9.97408 11.2344 9.36629 10.4313 9.36629 9.48628V8.81046C9.36629 7.61925 10.332 6.65356 11.5232 6.65356C12.7144 6.65362 13.6801 7.61925 13.6801 8.81046Z" fill="#C96E59"/>
<path d="M13.6911 8.76475V9.53238C13.6911 10.4486 13.0599 11.2341 12.2264 11.5261C11.3928 11.2341 10.8201 10.4486 10.8201 9.53238V8.76475C10.8201 7.84852 11.4165 7.07127 12.2501 6.7793C13.0836 7.07127 13.6911 7.84852 13.6911 8.76475Z" fill="#D78878"/>
<path d="M11.7868 17.2979H7.5681V16.5019C7.56809 16.4304 7.59417 16.3615 7.64143 16.308C7.68869 16.2544 7.75388 16.22 7.82474 16.2112L10.2171 15.9121C11.0506 15.8079 11.7868 16.4579 11.7868 17.2979Z" fill="#D4D4DA"/>
<path d="M15.4783 16.5019V17.2979H11.2595C11.2595 16.4579 11.9957 15.8079 12.8293 15.9121L15.2216 16.2112C15.2925 16.22 15.3577 16.2544 15.4049 16.308C15.4522 16.3615 15.4783 16.4304 15.4783 16.5019Z" fill="#ECECF1"/>
<path d="M13.2384 29.5524C13.1283 29.535 13.0187 29.5163 12.9094 29.4963C12.8548 29.4864 12.8004 29.7465 12.7461 29.7359C10.2468 29.2503 7.97902 28.1164 6.125 26.5161V18.6067C6.125 18.529 6.15587 18.4545 6.21081 18.3995C6.26575 18.3446 6.34027 18.3137 6.41797 18.3137H29.6077C29.2125 20.4155 28.3592 22.3557 27.1554 24.0266C27.1279 24.0648 26.7787 24.1027 26.7509 24.1406C26.6416 24.2891 26.5295 24.4356 26.4147 24.5799H13.5314C13.4537 24.5799 13.3791 24.6107 13.3242 24.6657C13.2693 24.7206 13.2384 24.7951 13.2384 24.8728V29.5524Z" fill="#AC695D"/>
<path d="M30.207 18.929H5.60521C5.52751 18.929 5.45299 18.8981 5.39805 18.8431C5.34311 18.7882 5.31224 18.7137 5.31224 18.636V17.4641C5.31224 17.3864 5.34311 17.3119 5.39805 17.257C5.45299 17.202 5.52751 17.1711 5.60521 17.1711H30.207C30.2847 17.1711 30.3592 17.202 30.4142 17.257C30.4691 17.3119 30.5 17.3864 30.5 17.4641V18.636C30.5 18.7137 30.4691 18.7882 30.4142 18.8431C30.3592 18.8981 30.2847 18.929 30.207 18.929Z" fill="#B97D72"/>
<path d="M15.7712 21.7302V25.8171C15.7712 26.1972 15.4564 26.5053 15.0681 26.5053C14.6798 26.5053 14.365 26.1972 14.365 25.8171V21.7302C14.365 21.3501 14.6798 21.042 15.0681 21.042C15.4564 21.042 15.7712 21.3501 15.7712 21.7302ZM21.2204 21.042C20.8321 21.042 20.5173 21.3501 20.5173 21.7302V25.8171C20.5173 26.1972 20.8321 26.5053 21.2204 26.5053C21.6087 26.5053 21.9236 26.1972 21.9236 25.8171V21.7302C21.9236 21.3501 21.6087 21.042 21.2204 21.042Z" fill="#FFCEBF"/>
<path d="M17.9211 22.1735H14.365V20.4797C14.365 19.7753 14.8548 19.1706 15.5311 19.0402L16.7821 18.8001L16.7886 18.7989C17.3768 18.6878 17.9211 19.1388 17.9211 19.7374V22.1735H17.9211Z" fill="#90C9E6"/>
<path d="M21.9236 22.1734H20.5466V26.699H15.7419V19.8751L15.742 19.8644C15.7456 19.3536 16.1237 18.9211 16.6276 18.8249L16.7576 18.8C16.9726 18.7589 17.1894 18.7276 17.4073 18.706H17.4074C18.1042 18.6369 18.8073 18.6686 19.495 18.8L20.752 19.0401C21.4315 19.1706 21.9236 19.7753 21.9236 20.4796V22.1734H21.9236Z" fill="#90C9E6"/>
<path d="M20.3012 15.6659V16.3417C20.3012 17.2867 19.6934 18.0898 18.8474 18.3814V19.1141C18.8474 19.5024 18.5326 19.8172 18.1443 19.8172C17.756 19.8172 17.4412 19.5024 17.4412 19.1141V18.3814C16.5952 18.0898 15.9874 17.2868 15.9874 16.3417V15.6659C15.9874 14.4747 16.9531 13.509 18.1443 13.509C19.3355 13.5091 20.3012 14.4747 20.3012 15.6659Z" fill="#FFCEBF"/>
<path d="M20.3337 15.5876V16.3552C20.3337 17.2714 19.681 18.0895 18.8475 18.3815C18.0139 18.0895 17.4412 17.304 17.4412 16.3878V15.6202C17.4412 14.7039 18.0376 13.9267 18.8712 13.6348C19.7047 13.9267 20.3337 14.6713 20.3337 15.5876Z" fill="#FFDFCF"/>
<path d="M24.1719 24.1406H18.3125C17.9889 24.1406 17.7266 23.8783 17.7266 23.5547C17.7266 23.2311 17.9889 22.9688 18.3125 22.9688H24.1719C24.4955 22.9688 24.7578 23.2311 24.7578 23.5547C24.7578 23.8783 24.4955 24.1406 24.1719 24.1406Z" fill="#126783"/>
<path d="M25.7364 25.1692C25.5974 25.3259 25.4549 25.4796 25.3091 25.6301C25.2589 25.6819 25.7126 25.7334 25.6617 25.7844C23.063 28.3886 19.4697 29.9999 15.5 29.9999C14.5757 30.0004 13.6535 29.912 12.7461 29.736V25.4622C12.7461 25.3845 12.777 25.3099 12.8319 25.255C12.8868 25.2001 12.9614 25.1692 13.0391 25.1692H25.7364Z" fill="#B97D72"/>
<path d="M25.6617 25.7844H12.2263C12.1486 25.7844 12.0741 25.7536 12.0191 25.6986C11.9642 25.6437 11.9333 25.5692 11.9333 25.4915V24.3196C11.9333 24.2419 11.9642 24.1674 12.0191 24.1124C12.0741 24.0575 12.1486 24.0266 12.2263 24.0266H27.1554C26.7052 24.6515 26.2057 25.2393 25.6617 25.7844Z" fill="#C49087"/>
</g>
<defs>
<clipPath id="clip0_384_331">
<rect width="30" height="30" fill="white" transform="translate(0.5)"/>
</clipPath>
</defs>
</svg>
