<svg width="31" height="30" viewBox="0 0 31 30" fill="none" xmlns="http://www.w3.org/2000/svg">
<g clip-path="url(#clip0_384_259)">
<path d="M3.87699 5.00006C1.76654 7.5334 0.500122 10.769 0.500122 14.2949C0.500122 22.4163 7.21584 29 15.5001 29C23.7844 29 30.5001 22.4163 30.5001 14.2949C30.5001 10.769 29.2337 7.53333 27.1232 5L3.87699 5.00006Z" fill="#73C3F9"/>
<path d="M15.5 11.8097C18.7234 11.8097 21.3364 11.0481 21.3364 10.1086C21.3364 9.16908 18.7234 8.40747 15.5 8.40747C12.2766 8.40747 9.66351 9.16908 9.66351 10.1086C9.66351 11.0481 12.2766 11.8097 15.5 11.8097Z" fill="#1C2E7A"/>
<path d="M24.2547 3.80785L16.2678 0.166776C16.0268 0.0568731 15.7649 0 15.5 0C15.2351 0 14.9732 0.0568731 14.7321 0.166776L6.74535 3.80785C6.00472 4.14547 6.00472 5.19758 6.74535 5.53525L9.80506 6.93014V6.09822C9.80506 5.72346 10.406 5.32455 11.4126 5.03117C13.6683 4.37375 17.3329 4.37404 19.5875 5.03117C20.5941 5.32461 21.195 5.72346 21.195 6.09822V6.93014L24.2547 5.53525C24.9953 5.19758 24.9953 4.14547 24.2547 3.80785Z" fill="#3C58A0"/>
<path d="M6.74535 3.80795C6.00472 4.14557 6.00472 5.19773 6.74535 5.53535L9.805 6.93023V6.09832C9.805 5.72355 10.4059 5.32465 11.4126 5.03127C12.4233 4.73666 13.7169 4.57459 15.0398 4.54406C15.2806 4.44146 15.5 4.39723 15.5 4.39723C12.2784 2.68682 14.7321 0.166992 14.7321 0.166992L6.74535 3.80795Z" fill="#2A428C"/>
<path d="M15.5 4.39697C12.2766 4.39697 9.66351 5.15857 9.66351 6.09807V10.1085H9.69386C9.99363 9.25094 12.4786 8.58185 15.4999 8.58185C18.5212 8.58185 21.0063 9.25094 21.306 10.1085H21.3363V6.09807C21.3364 5.15857 18.7233 4.39697 15.5 4.39697Z" fill="#2A428C"/>
<path d="M15.5 4.39697C12.2766 4.39697 9.66351 5.15857 9.66351 6.09807V10.1085H9.69386C9.97886 9.29318 12.2395 8.64871 15.0578 8.58713V8.58666C14.4074 8.336 14.4205 7.67113 14.4205 7.67113V5.20598C14.4206 4.61359 15.5 4.39697 15.5 4.39697Z" fill="#1C2E7A"/>
<path d="M18.9804 12.3686C18.907 12.3686 18.8344 12.3541 18.7666 12.3261C18.6988 12.298 18.6372 12.2568 18.5853 12.2049C18.5334 12.153 18.4922 12.0914 18.4641 12.0236C18.436 11.9558 18.4216 11.8831 18.4216 11.8097V9.62308C18.4216 9.3144 18.6718 9.06421 18.9804 9.06421C19.2891 9.06421 19.5393 9.3144 19.5393 9.62308V11.8097C19.5394 12.1184 19.2891 12.3686 18.9804 12.3686Z" fill="#FFDD40"/>
<path d="M18.9804 9.06421C18.8322 9.06421 18.6901 9.12309 18.5853 9.2279C18.4804 9.3327 18.4216 9.47486 18.4216 9.62308V11.2753C18.4216 10.9666 18.6718 10.7164 18.9804 10.7164C19.1287 10.7164 19.2708 10.7753 19.3756 10.8801C19.4804 10.9849 19.5393 11.1271 19.5393 11.2753V9.62308C19.5394 9.3144 19.2891 9.06421 18.9804 9.06421Z" fill="#FFB332"/>
<path d="M18.9805 8.26169C18.8693 8.26169 18.7627 8.21753 18.6841 8.13892C18.6054 8.0603 18.5613 7.95368 18.5613 7.84251V0.472646C18.5613 0.361473 18.6054 0.254853 18.6841 0.176242C18.7627 0.0976303 18.8693 0.0534668 18.9805 0.0534668C19.0916 0.0534668 19.1983 0.0976303 19.2769 0.176242C19.3555 0.254853 19.3996 0.361473 19.3996 0.472646V7.84257C19.3996 7.89761 19.3888 7.95212 19.3677 8.00297C19.3467 8.05383 19.3158 8.10003 19.2769 8.13895C19.2379 8.17787 19.1917 8.20874 19.1409 8.2298C19.09 8.25086 19.0355 8.2617 18.9805 8.26169Z" fill="#FFDD40"/>
<path d="M20.0763 8.77839C20.0763 9.38343 19.5858 9.87392 18.9808 9.87392C18.3757 9.87392 17.8853 9.38343 17.8853 8.77839C17.8853 8.17335 18.3757 7.68286 18.9808 7.68286C19.5858 7.68286 20.0763 8.17335 20.0763 8.77839Z" fill="#FFB332"/>
<path d="M19.2002 8.8982C19.459 8.8982 19.6688 8.68839 19.6688 8.42957C19.6688 8.17075 19.459 7.96094 19.2002 7.96094C18.9414 7.96094 18.7316 8.17075 18.7316 8.42957C18.7316 8.68839 18.9414 8.8982 19.2002 8.8982Z" fill="#FFDD40"/>
<path d="M15.7439 22.4878C18.64 22.4878 20.9878 20.14 20.9878 17.2439C20.9878 14.3478 18.64 12 15.7439 12C12.8478 12 10.5 14.3478 10.5 17.2439C10.5 20.14 12.8478 22.4878 15.7439 22.4878Z" fill="#FB8402"/>
<path d="M18.7614 12.9563C19.3631 13.8097 19.7177 14.8499 19.7177 15.9735C19.7177 18.8696 17.3699 21.2174 14.4738 21.2174C13.3502 21.2174 12.31 20.8629 11.4565 20.2612C12.4057 21.6075 13.9717 22.4879 15.7442 22.4879C18.6403 22.4879 20.9881 20.1401 20.9881 17.244C20.9881 15.4714 20.1078 13.9055 18.7614 12.9563Z" fill="#FD9F02"/>
<path d="M13.9224 19.3623V15.1257C13.9224 14.8459 14.2237 14.6696 14.4676 14.8068L18.2335 16.9251C18.4822 17.065 18.4822 17.423 18.2335 17.5629L14.4676 19.6812C14.2237 19.8184 13.9224 19.6422 13.9224 19.3623Z" fill="#EAF6FF"/>
</g>
<defs>
<clipPath id="clip0_384_259">
<rect width="30" height="30" fill="white" transform="translate(0.5)"/>
</clipPath>
</defs>
</svg>
