<svg width="60" height="61" viewBox="0 0 60 61" fill="none" xmlns="http://www.w3.org/2000/svg">
<circle cx="30" cy="30.5" r="28.5" transform="rotate(-180 30 30.5)" stroke="#E2E2E2" stroke-width="3"/>
<circle cx="29.9998" cy="30.5" r="25" transform="rotate(-180 29.9998 30.5)" fill="#F7FBFD"/>
<path d="M35.3151 30.6001L25.8866 40.0286C25.5437 40.3715 25.0294 40.3715 24.6866 40.0286C24.3437 39.6858 24.3437 39.1715 24.6866 38.8286L33.5151 30.0001L24.6866 21.1715C24.3437 20.8286 24.3437 20.3143 24.6866 19.9715C25.0294 19.6286 25.5437 19.6286 25.8866 19.9715L35.3151 29.4001C35.4866 29.5715 35.5723 29.7429 35.5723 30.0001C35.5723 30.2572 35.4866 30.4286 35.3151 30.6001Z" fill="#023047"/>
</svg>
