<svg width="31" height="30" viewBox="0 0 31 30" fill="none" xmlns="http://www.w3.org/2000/svg">
<g clip-path="url(#clip0_384_279)">
<path d="M26.6238 24.7183C28.6436 22.2452 29.8556 19.0865 29.8556 15.6444C29.8556 7.71602 23.4284 1.28882 15.5 1.28882C7.57162 1.28882 1.14441 7.71602 1.14441 15.6444C1.14441 19.0866 2.35642 22.2453 4.37626 24.7184L26.6238 24.7183Z" fill="#73C3F9"/>
<path d="M15.5 11.8097C18.7234 11.8097 21.3365 11.0481 21.3365 10.1086C21.3365 9.16908 18.7234 8.40747 15.5 8.40747C12.2766 8.40747 9.66354 9.16908 9.66354 10.1086C9.66354 11.0481 12.2766 11.8097 15.5 11.8097Z" fill="#1C2E7A"/>
<path d="M15.5 8.40747C15.4018 8.40747 15.3043 8.40823 15.2073 8.40964C15.1126 8.52155 15.0579 8.58677 15.0579 8.58677C15.0579 8.58677 18.5481 10.0435 15.3132 11.8083C15.3754 11.8088 15.4374 11.8097 15.5 11.8097C18.7234 11.8097 21.3365 11.0481 21.3365 10.1086C21.3364 9.16907 18.7234 8.40747 15.5 8.40747Z" fill="#142766"/>
<path d="M11.3964 8.97803C10.9187 9.11947 10.4692 9.28518 10.1838 9.46822C10.2312 10.3201 10.3936 11.0827 10.3936 11.0827C10.5476 11.093 10.7647 11.1554 10.8849 11.2136C10.9144 11.0303 10.9625 10.794 11.0304 10.6196C11.0821 10.4868 11.1468 10.3525 11.2276 10.2257C11.3673 10.0056 11.4322 9.74635 11.4127 9.48644C11.4002 9.31727 11.3948 9.14765 11.3964 8.97803ZM19.6036 8.97803C19.6056 9.16365 19.5983 9.33521 19.5878 9.48C19.5688 9.7415 19.6311 10.0038 19.7724 10.2256C19.8558 10.3565 19.922 10.4954 19.9746 10.6324C20.0399 10.8029 20.0864 11.0348 20.1151 11.2136C20.2667 11.1401 20.5392 11.0602 20.7245 11.0863C20.7433 10.4345 20.7964 9.68514 20.814 9.46676C20.5288 9.2843 20.0801 9.11912 19.6036 8.97803Z" fill="#A05838"/>
<path d="M21.0001 11.1327C20.7704 10.9222 20.3129 11.0289 20.1151 11.1578C20.1585 11.4276 20.161 11.7037 20.1235 11.9763L19.8901 13.6764C19.8901 13.8135 19.8857 13.9479 19.8778 14.08C20.447 14.2517 20.7298 13.7407 20.7774 13.39C20.7979 13.2391 20.8315 13.0902 20.8779 12.9451C21.0293 12.4723 21.5755 11.66 21.0001 11.1327Z" fill="#FCAD6D"/>
<path d="M20.5678 12.5637C20.3816 12.5637 20.2085 12.5081 20.0635 12.4133L19.89 13.6763C19.89 13.8133 19.8857 13.9477 19.8778 14.0799C20.447 14.2515 20.7297 13.7405 20.7774 13.3899C20.7979 13.2389 20.8314 13.0901 20.8779 12.9449C20.9274 12.7904 21.0189 12.5995 21.0998 12.3943C20.9444 12.5046 20.7585 12.5638 20.5678 12.5637Z" fill="#FD995B"/>
<path d="M10.0003 11.1327C10.23 10.9222 10.6875 11.0289 10.8853 11.1578C10.8421 11.4287 10.8393 11.7046 10.8769 11.9763L11.1104 13.6764C11.1104 13.8135 11.1147 13.9479 11.1226 14.08C10.5534 14.2517 10.2706 13.7407 10.223 13.39C10.2025 13.239 10.1689 13.0902 10.1225 12.9451C9.97106 12.4723 9.42485 11.66 10.0003 11.1327Z" fill="#FCAD6D"/>
<path d="M10.9444 12.4708C10.8193 12.5318 10.682 12.5636 10.5428 12.5637C10.2633 12.5637 10.0133 12.4391 9.84393 12.2429C9.93411 12.505 10.0606 12.7529 10.1221 12.9449C10.1686 13.09 10.2022 13.2389 10.2226 13.3899C10.2703 13.7406 10.553 14.2516 11.1222 14.0799C11.1143 13.9478 11.11 13.8133 11.11 13.6763L10.9444 12.4708Z" fill="#FD995B"/>
<path d="M18.8117 21.6145L19.8737 20.1677C19.6425 20.0997 19.4093 20.0386 19.1744 19.9844C18.6062 19.4161 18.4621 18.3387 18.4361 17.585C18.1396 17.9304 17.8284 18.2193 17.5309 18.4503C16.9515 18.9003 16.2365 19.1447 15.5 19.1447C14.7636 19.1447 14.0486 18.9003 13.4692 18.4503C13.1717 18.2194 12.8605 17.9304 12.5639 17.585C12.538 18.3387 12.394 19.4161 11.8257 19.9844C11.5908 20.0386 11.3576 20.0997 11.1264 20.1677L12.1884 21.6145H18.8117Z" fill="#FCAD6D"/>
<path d="M14.0436 20.9415C14.0923 20.9368 14.1396 20.9222 14.1826 20.8988C14.2256 20.8753 14.2634 20.8434 14.2938 20.805C14.6907 20.301 14.9451 19.7017 15.1083 19.1212C14.5111 19.0507 13.9443 18.8188 13.4691 18.4503C13.1717 18.2194 12.8604 17.9304 12.5639 17.585C12.5379 18.3387 12.3939 19.4161 11.8256 19.9844C11.5908 20.0386 11.3576 20.0997 11.1263 20.1677L12.1884 21.6145H13.1597C13.4719 21.0749 13.8466 20.9611 14.0436 20.9415Z" fill="#FD995B"/>
<path d="M12.8303 22.489L14.9368 25.3588C15.2159 25.7391 15.784 25.7391 16.0632 25.3588L18.1697 22.489H12.8303Z" fill="#BEC8F7"/>
<path d="M19.8283 10.2257C19.687 10.004 19.6247 9.7417 19.6437 9.48014C19.6542 9.33535 19.6615 9.16379 19.6595 8.97816C18.6009 8.66469 17.1285 8.47021 15.5 8.47021C13.8715 8.47021 12.3991 8.66469 11.3405 8.97816C11.3389 9.14779 11.3443 9.31741 11.3567 9.48658C11.3763 9.74649 11.3114 10.0058 11.1716 10.2258C11.0908 10.3527 11.0262 10.4869 10.9744 10.6197C10.8067 11.0507 10.7577 11.5183 10.8205 11.9759L11.054 13.6764C11.054 16.1211 12.359 17.7828 13.4691 18.6447C14.0485 19.0947 14.7636 19.3391 15.5 19.3391C16.2364 19.3391 16.9514 19.0947 17.5308 18.6447C18.6409 17.7827 19.9459 16.1211 19.9459 13.6764L20.1793 11.9763C20.2415 11.5231 20.1944 11.0602 20.0304 10.6325C19.978 10.4955 19.9118 10.3567 19.8283 10.2257Z" fill="#F9BA8F"/>
<path d="M16.3907 18.6046C15.2807 17.6928 13.9757 15.9352 13.9757 13.3493L13.7422 11.5507C13.6794 11.0665 13.7283 10.5721 13.896 10.1161C13.9478 9.97557 14.0125 9.83359 14.0933 9.69941C14.2335 9.46662 14.2974 9.19205 14.2784 8.91754C14.269 8.78148 14.2636 8.64517 14.2623 8.50879C13.1319 8.57998 12.123 8.74639 11.3405 8.97807C11.3389 9.14769 11.3443 9.31731 11.3568 9.48648C11.3763 9.7464 11.3114 10.0057 11.1717 10.2257C11.0909 10.3526 11.0262 10.4868 10.9744 10.6197C10.8067 11.0507 10.7578 11.5182 10.8206 11.9759L11.0541 13.6764C11.0541 16.1211 12.3591 17.7827 13.4691 18.6447C14.0485 19.0947 14.7636 19.3391 15.5 19.3391C16.0136 19.339 16.5202 19.2198 16.9799 18.9906C16.7702 18.8835 16.5727 18.7541 16.3907 18.6046Z" fill="#FCAD6D"/>
<path d="M26.7182 24.6012C26.4653 24.1646 26.1451 23.7624 25.7396 23.4297L16.0983 29.2782C15.7382 29.4967 15.2617 29.4967 14.9016 29.2782L5.26043 23.4297C4.85491 23.7625 4.53469 24.1646 4.28186 24.6012C6.91243 27.8916 10.9597 30 15.5 30C20.0403 30 24.0876 27.8916 26.7182 24.6012Z" fill="#3C58A0"/>
<path d="M8.58815 25.7454C8.65377 25.686 8.69198 25.6041 8.70147 25.5171L5.26043 23.4297C4.85491 23.7624 4.53469 24.1646 4.28186 24.6012C5.28959 25.8613 6.50146 26.9435 7.86709 27.8029C7.95247 26.4908 8.36754 25.9452 8.58815 25.7454Z" fill="#1C2E7A"/>
<path d="M16.5522 21.8036C16.5268 21.7334 16.5163 21.6586 16.5214 21.5841C16.5264 21.5096 16.547 21.437 16.5816 21.3708H14.4497C14.4844 21.437 14.5049 21.5096 14.51 21.5841C14.515 21.6586 14.5045 21.7333 14.4791 21.8036C14.4002 22.0217 14.3001 22.2316 14.1802 22.4302L14.8166 23.2872H16.1834L16.837 22.407C16.7234 22.2152 16.628 22.0132 16.5522 21.8036Z" fill="#E80054"/>
<path d="M16.1838 23.2871H14.817L14.3757 24.5939L14.9372 25.3588C15.2164 25.7391 15.7844 25.7391 16.0636 25.3588L16.6251 24.5939L16.1838 23.2871Z" fill="#FF7186"/>
<path d="M15.0691 25.4791L15.4162 24.4513C15.4664 24.3027 15.5619 24.1736 15.6893 24.0821C15.8167 23.9906 15.9697 23.9414 16.1265 23.9414H16.4048L16.1838 23.2871H14.817L14.3757 24.5939L14.9372 25.3588C14.9809 25.418 15.0337 25.4699 15.0937 25.5126L15.0691 25.4791Z" fill="#FF4155"/>
<path d="M17.7058 23.3991L19.767 20.591C19.796 20.322 19.8059 20.1484 19.8059 20.1484L19.1275 19.3081C18.9543 19.0937 18.6322 19.0801 18.4417 19.2793L16.5571 21.2496C16.488 21.3219 16.4404 21.4121 16.4198 21.51C16.3992 21.6079 16.4063 21.7096 16.4404 21.8037C16.5948 22.2315 16.9574 22.9739 17.7058 23.3991ZM13.3033 23.4114C14.0667 22.9884 14.4349 22.2357 14.5909 21.8037C14.625 21.7096 14.6321 21.6079 14.6115 21.51C14.5909 21.4121 14.5433 21.3219 14.4742 21.2496L12.5896 19.2793C12.399 19.0801 12.077 19.0937 11.9038 19.3081L11.1941 20.1484C11.1941 20.1484 11.2055 20.3244 11.2372 20.5967L13.3033 23.4114Z" fill="#E9EFFF"/>
<path d="M14.0436 20.9416C14.0812 20.9379 14.118 20.9283 14.1526 20.9133L12.5896 19.2793C12.3991 19.0801 12.077 19.0937 11.9038 19.3081L11.1941 20.1484C11.1941 20.1484 11.2055 20.3244 11.2372 20.5967L12.6624 22.5383C12.7144 22.518 12.7611 22.4859 12.7988 22.4446C12.8364 22.4034 12.8641 22.354 12.8796 22.3003C13.2049 21.1603 13.7814 20.9677 14.0436 20.9416Z" fill="#D3DCFB"/>
<path d="M25.7156 22.4165C25.5272 22.3023 25.3299 22.2037 25.1255 22.1216L24.4502 21.8711L16.0504 27.6731C15.8886 27.7849 15.6966 27.8448 15.4999 27.8448C15.3033 27.8448 15.1113 27.7849 14.9494 27.6731L6.57898 21.8914L5.4715 22.3097C5.40699 22.3442 5.34345 22.3805 5.28095 22.4185C4.85491 22.6776 4.86259 23.3002 5.28892 23.5588L14.9016 29.39C15.082 29.4994 15.2889 29.5573 15.4999 29.5573C15.7109 29.5573 15.9178 29.4994 16.0982 29.39L25.7106 23.5589C26.1384 23.2996 26.1433 22.6761 25.7156 22.4165Z" fill="#FFDD40"/>
<path d="M9.61906 23.9912L6.57904 21.8914L5.47156 22.3097C5.40705 22.3442 5.34351 22.3805 5.28101 22.4185C4.85497 22.6776 4.86259 23.3002 5.28892 23.5588L8.67798 25.6146C8.69731 25.5652 8.70615 25.5124 8.70394 25.4594C8.68232 24.9074 9.07179 24.4121 9.61906 23.9912Z" fill="#FFB332"/>
<path d="M16.0632 25.247C15.7841 25.6273 15.216 25.6273 14.9368 25.247L11.1942 20.1482L6.47446 21.9308L14.9495 27.7849C15.1113 27.8967 15.3033 27.9565 15.5 27.9565C15.6967 27.9565 15.8887 27.8967 16.0505 27.7849L24.5556 21.9102L19.8059 20.1483L16.0632 25.247Z" fill="#FFB332"/>
<path d="M9.54342 24.0509C10.5286 23.2586 12.0958 22.7191 12.6382 22.5477C12.7221 22.5211 12.7936 22.4652 12.8397 22.3902L11.1942 20.1484L6.47446 21.9311L9.54342 24.0509Z" fill="#FF9100"/>
<path d="M24.2547 3.80785L16.2678 0.166776C16.0268 0.0568731 15.7649 0 15.5 0C15.2351 0 14.9732 0.0568731 14.7321 0.166776L6.74535 3.80785C6.00472 4.14547 6.00472 5.19758 6.74535 5.53525L9.80506 6.93014V6.09822C9.80506 5.72346 10.406 5.32455 11.4126 5.03117C13.6683 4.37375 17.3329 4.37404 19.5875 5.03117C20.5941 5.32461 21.195 5.72346 21.195 6.09822V6.93014L24.2547 5.53525C24.9953 5.19758 24.9953 4.14547 24.2547 3.80785Z" fill="#3C58A0"/>
<path d="M6.74535 3.80795C6.00472 4.14557 6.00472 5.19773 6.74535 5.53535L9.805 6.93023V6.09832C9.805 5.72355 10.4059 5.32465 11.4126 5.03127C12.4233 4.73666 13.7169 4.57459 15.0398 4.54406C15.2806 4.44146 15.5 4.39723 15.5 4.39723C12.2784 2.68682 14.7321 0.166992 14.7321 0.166992L6.74535 3.80795Z" fill="#2A428C"/>
<path d="M15.5 4.39697C12.2766 4.39697 9.66354 5.15857 9.66354 6.09807V10.1085H9.69389C9.99366 9.25094 12.4787 8.58185 15.4999 8.58185C18.5212 8.58185 21.0063 9.25094 21.306 10.1085H21.3364V6.09807C21.3364 5.15857 18.7234 4.39697 15.5 4.39697Z" fill="#2A428C"/>
<path d="M15.5 4.39697C12.2766 4.39697 9.66354 5.15857 9.66354 6.09807V10.1085H9.69389C9.97889 9.29318 12.2396 8.64871 15.0579 8.58713V8.58666C14.4074 8.336 14.4205 7.67113 14.4205 7.67113V5.20598C14.4206 4.61359 15.5 4.39697 15.5 4.39697Z" fill="#1C2E7A"/>
<path d="M18.9805 12.3686C18.9071 12.3686 18.8344 12.3541 18.7666 12.3261C18.6988 12.298 18.6372 12.2568 18.5853 12.2049C18.5334 12.153 18.4922 12.0914 18.4641 12.0236C18.4361 11.9558 18.4216 11.8831 18.4216 11.8097V9.62308C18.4216 9.3144 18.6718 9.06421 18.9805 9.06421C19.2891 9.06421 19.5393 9.3144 19.5393 9.62308V11.8097C19.5394 12.1184 19.2891 12.3686 18.9805 12.3686Z" fill="#FFDD40"/>
<path d="M18.9805 9.06421C18.8322 9.06421 18.6901 9.12309 18.5853 9.2279C18.4805 9.3327 18.4216 9.47486 18.4216 9.62308V11.2753C18.4216 10.9666 18.6719 10.7164 18.9805 10.7164C19.1287 10.7164 19.2708 10.7753 19.3756 10.8801C19.4805 10.9849 19.5393 11.1271 19.5393 11.2753V9.62308C19.5394 9.3144 19.2891 9.06421 18.9805 9.06421Z" fill="#FFB332"/>
<path d="M18.9805 8.26169C18.8693 8.26169 18.7627 8.21753 18.6841 8.13892C18.6054 8.0603 18.5613 7.95368 18.5613 7.84251V0.472646C18.5613 0.361473 18.6054 0.254853 18.6841 0.176242C18.7627 0.0976303 18.8693 0.0534668 18.9805 0.0534668C19.0916 0.0534668 19.1983 0.0976303 19.2769 0.176242C19.3555 0.254853 19.3996 0.361473 19.3996 0.472646V7.84257C19.3996 7.89761 19.3888 7.95212 19.3677 8.00297C19.3467 8.05383 19.3158 8.10003 19.2769 8.13895C19.2379 8.17787 19.1917 8.20874 19.1409 8.2298C19.09 8.25086 19.0355 8.2617 18.9805 8.26169Z" fill="#FFDD40"/>
<path d="M20.0763 8.77839C20.0763 9.38343 19.5858 9.87392 18.9808 9.87392C18.3757 9.87392 17.8853 9.38343 17.8853 8.77839C17.8853 8.17335 18.3757 7.68286 18.9808 7.68286C19.5858 7.68286 20.0763 8.17335 20.0763 8.77839Z" fill="#FFB332"/>
<path d="M19.2002 8.8982C19.459 8.8982 19.6688 8.68839 19.6688 8.42957C19.6688 8.17075 19.459 7.96094 19.2002 7.96094C18.9414 7.96094 18.7316 8.17075 18.7316 8.42957C18.7316 8.68839 18.9414 8.8982 19.2002 8.8982Z" fill="#FFDD40"/>
<path d="M23.4096 9.87407C23.1901 12.7868 22.8293 14.4045 21.8094 16.4929C21.4147 17.3011 21.715 18.2754 22.4901 18.7317C24.1183 19.6903 26.8822 20.974 29.0951 20.2656C29.5881 18.8155 29.8556 17.2613 29.8556 15.6444C29.8556 12.9603 29.1181 10.4488 27.836 8.29989C26.2737 7.8336 23.5955 7.40581 23.4096 9.87407ZM9.22062 16.493C8.20074 14.4045 7.83992 12.7868 7.62042 9.87413C7.43298 7.38642 4.71406 7.84052 3.15746 8.31103C1.87935 10.4575 1.14441 12.965 1.14441 15.6446C1.14441 17.2574 1.41048 18.8079 1.90109 20.2549C4.11962 20.9873 6.90341 19.6953 8.53988 18.7319C9.3149 18.2755 9.61525 17.3012 9.22062 16.493Z" fill="#9BD8F9"/>
</g>
<defs>
<clipPath id="clip0_384_279">
<rect width="30" height="30" fill="white" transform="translate(0.5)"/>
</clipPath>
</defs>
</svg>
