<svg width="31" height="28" viewBox="0 0 31 28" fill="none" xmlns="http://www.w3.org/2000/svg">
<path d="M28.9104 1.48941C26.6428 3.64901 23.6314 4.85358 20.5 4.85357H10.5C7.36857 4.85358 4.35714 3.64901 2.08956 1.48941L1.7363 1.15302C1.27048 0.709353 0.499969 1.03953 0.499969 1.68289V26.317C0.499969 26.9603 1.27048 27.2906 1.7363 26.8469L2.08956 26.5105C4.35714 24.3509 7.36857 23.1463 10.5 23.1463H20.5C23.6314 23.1463 26.6429 24.3509 28.9104 26.5105L29.2637 26.8469C29.7295 27.2906 30.5 26.9603 30.5 26.317V1.68289C30.5 1.03959 29.7295 0.709353 29.2637 1.15302L28.9104 1.48941Z" fill="#219EBC"/>
<path d="M29.2636 1.15302L28.9104 1.48947C28.8315 1.56446 28.7515 1.63839 28.6707 1.71125V26.2887C28.7516 26.3616 28.8315 26.4355 28.9104 26.5105L29.2636 26.847C29.7294 27.2906 30.5 26.9604 30.5 26.3171V1.68289C30.5 1.03953 29.7294 0.709353 29.2636 1.15302Z" fill="#90C9E6"/>
<path d="M15.5 19.2439C18.3961 19.2439 20.7439 16.8961 20.7439 14C20.7439 11.1039 18.3961 8.7561 15.5 8.7561C12.6038 8.7561 10.2561 11.1039 10.2561 14C10.2561 16.8961 12.6038 19.2439 15.5 19.2439Z" fill="#FB8402"/>
<path d="M18.5172 9.7124C19.1189 10.5658 19.4734 11.606 19.4734 12.7296C19.4734 15.6257 17.1256 17.9735 14.2295 17.9735C13.1059 17.9735 12.0658 17.619 11.2123 17.0173C12.1615 18.3637 13.7274 19.244 15.5 19.244C18.3961 19.244 20.7439 16.8962 20.7439 14.0001C20.7439 12.2275 19.8636 10.6616 18.5172 9.7124Z" fill="#FD9F02"/>
<path d="M13.678 16.1182V11.8815C13.678 11.6017 13.9793 11.4255 14.2232 11.5626L17.9891 13.681C18.2378 13.8208 18.2378 14.1789 17.9891 14.3187L14.2232 16.4371C13.9793 16.5742 13.678 16.398 13.678 16.1182Z" fill="#EAF6FF"/>
<path d="M28.5483 24.1584C28.4562 24.1584 28.3663 24.1302 28.2907 24.0776C28.1947 24.011 28.0978 23.9456 28.0002 23.8815C27.8998 23.8156 27.8297 23.7126 27.8053 23.595C27.7809 23.4774 27.8042 23.355 27.87 23.2546C27.9026 23.2049 27.9447 23.1621 27.9939 23.1286C28.043 23.0952 28.0983 23.0718 28.1565 23.0597C28.2147 23.0476 28.2747 23.0471 28.3331 23.0582C28.3915 23.0693 28.4472 23.0918 28.4969 23.1244C28.6011 23.1928 28.7044 23.2625 28.8068 23.3336C28.8861 23.3886 28.9457 23.4675 28.977 23.5588C29.0082 23.65 29.0095 23.7489 28.9807 23.841C28.9518 23.933 28.8943 24.0135 28.8165 24.0706C28.7388 24.1277 28.6448 24.1584 28.5483 24.1584ZM26.5277 22.9917C26.461 22.9917 26.3952 22.9769 26.3349 22.9483C26.119 22.8466 25.9003 22.7505 25.6793 22.6601C25.5695 22.6138 25.4823 22.526 25.4368 22.4159C25.3912 22.3057 25.391 22.182 25.4361 22.0717C25.4812 21.9613 25.568 21.8732 25.6776 21.8264C25.7873 21.7797 25.911 21.7781 26.0218 21.8219C26.2575 21.9183 26.4907 22.0208 26.7211 22.1294C26.8142 22.1732 26.8896 22.2475 26.9348 22.34C26.98 22.4325 26.9924 22.5376 26.9699 22.638C26.9474 22.7384 26.8913 22.8282 26.8109 22.8925C26.7305 22.9568 26.6306 22.9918 26.5277 22.9917ZM4.47297 22.9913C4.38705 22.9914 4.30289 22.967 4.23033 22.921C4.15776 22.875 4.09978 22.8093 4.06317 22.7315C4.03782 22.6778 4.02331 22.6195 4.02046 22.5601C4.01762 22.5008 4.0265 22.4414 4.0466 22.3855C4.0667 22.3295 4.09762 22.2781 4.1376 22.2341C4.17758 22.1901 4.22584 22.1544 4.27961 22.129C4.51 22.0204 4.74323 21.9179 4.97905 21.8216C5.0902 21.7762 5.21484 21.7768 5.32553 21.8233C5.43622 21.8698 5.52391 21.9584 5.56929 22.0696C5.61468 22.1807 5.61404 22.3054 5.56753 22.4161C5.52103 22.5268 5.43245 22.6144 5.32129 22.6598C5.10029 22.7501 4.8817 22.8462 4.66575 22.948C4.60548 22.9765 4.53964 22.9913 4.47297 22.9913ZM23.9773 22.0782C23.9398 22.0782 23.9025 22.0735 23.8662 22.0643C23.6346 22.0059 23.4016 21.9536 23.1673 21.9074C22.922 21.859 22.7624 21.6209 22.8107 21.3756C22.859 21.1303 23.0972 20.9708 23.3424 21.019C23.5913 21.0681 23.8421 21.1244 24.0877 21.1864C24.2041 21.2158 24.3041 21.2902 24.3656 21.3933C24.4271 21.4964 24.4452 21.6197 24.4158 21.7361C24.3912 21.8338 24.3347 21.9205 24.2553 21.9825C24.1759 22.0444 24.078 22.0781 23.9773 22.0782ZM7.02338 22.0779C6.91297 22.0779 6.80638 22.0375 6.72366 21.9644C6.64095 21.8912 6.58781 21.7904 6.57424 21.6808C6.56068 21.5712 6.58763 21.4605 6.65001 21.3694C6.7124 21.2783 6.80592 21.2131 6.91299 21.1861C7.15994 21.1238 7.40849 21.068 7.65836 21.0188C7.71669 21.0073 7.77672 21.0074 7.83501 21.0191C7.8933 21.0308 7.94871 21.0539 7.99809 21.087C8.04746 21.1201 8.08982 21.1626 8.12276 21.2121C8.1557 21.2616 8.17856 21.3171 8.19004 21.3754C8.20154 21.4338 8.20143 21.4938 8.18972 21.5521C8.17802 21.6104 8.15495 21.6658 8.12183 21.7152C8.08871 21.7645 8.04619 21.8069 7.9967 21.8398C7.94721 21.8728 7.89171 21.8956 7.83338 21.9071C7.59907 21.9533 7.366 22.0057 7.13442 22.064C7.09812 22.0732 7.06083 22.0779 7.02338 22.0779ZM21.2986 21.6699C21.2901 21.6699 21.2815 21.6697 21.273 21.6692C21.0344 21.656 20.7956 21.6489 20.5567 21.6479C20.4972 21.6477 20.4384 21.6357 20.3835 21.6127C20.3287 21.5898 20.2789 21.5562 20.2371 21.514C20.1952 21.4718 20.1621 21.4218 20.1395 21.3667C20.117 21.3117 20.1055 21.2528 20.1058 21.1933C20.1063 21.0736 20.1542 20.9589 20.239 20.8744C20.3238 20.7899 20.4387 20.7425 20.5584 20.7425H20.5603C20.8141 20.7435 21.0708 20.7511 21.3233 20.7652C21.3827 20.7685 21.4408 20.7835 21.4944 20.8092C21.548 20.835 21.5959 20.8711 21.6356 20.9154C21.6752 20.9597 21.7057 21.0114 21.7254 21.0675C21.745 21.1236 21.7535 21.183 21.7502 21.2424C21.7437 21.3578 21.6934 21.4665 21.6094 21.546C21.5254 21.6255 21.4142 21.6698 21.2986 21.6699ZM9.70229 21.6699C9.58427 21.67 9.47087 21.6241 9.38624 21.5418C9.30161 21.4595 9.25245 21.3475 9.24924 21.2295C9.24602 21.1115 9.289 20.997 9.36902 20.9102C9.44904 20.8235 9.55977 20.7714 9.67762 20.7651C9.93069 20.7511 10.1874 20.7435 10.4409 20.7425H10.4427C10.5619 20.7436 10.6759 20.7916 10.7598 20.8762C10.8438 20.9608 10.891 21.0751 10.8913 21.1943C10.8915 21.3135 10.8447 21.428 10.761 21.5129C10.6774 21.5978 10.5636 21.6463 10.4444 21.6479C10.2054 21.6489 9.96648 21.656 9.72783 21.6692C9.71933 21.6696 9.71081 21.6699 9.70229 21.6699ZM18.5847 21.6478H17.8445C17.7245 21.6478 17.6093 21.6001 17.5244 21.5152C17.4395 21.4303 17.3918 21.3152 17.3918 21.1951C17.3918 21.075 17.4395 20.9599 17.5244 20.875C17.6093 20.7901 17.7245 20.7424 17.8445 20.7424H18.5847C18.7048 20.7424 18.82 20.7901 18.9049 20.875C18.9897 20.9599 19.0374 21.075 19.0374 21.1951C19.0374 21.3152 18.9897 21.4303 18.9049 21.5152C18.82 21.6001 18.7048 21.6478 18.5847 21.6478ZM15.8707 21.6478H15.1306C15.0105 21.6478 14.8954 21.6001 14.8105 21.5152C14.7256 21.4303 14.6779 21.3152 14.6779 21.1951C14.6779 21.075 14.7256 20.9599 14.8105 20.875C14.8954 20.7901 15.0105 20.7424 15.1306 20.7424H15.8707C16.1208 20.7424 16.3234 20.9451 16.3234 21.1951C16.3234 21.4451 16.1208 21.6478 15.8707 21.6478ZM13.1568 21.6478H12.4166C12.2965 21.6478 12.1814 21.6001 12.0965 21.5152C12.0116 21.4303 11.9639 21.3152 11.9639 21.1951C11.9639 21.075 12.0116 20.9599 12.0965 20.875C12.1814 20.7901 12.2965 20.7424 12.4166 20.7424H13.1568C13.4069 20.7424 13.6095 20.9451 13.6095 21.1951C13.6095 21.4451 13.4069 21.6478 13.1568 21.6478ZM2.4516 24.1584C2.35513 24.1585 2.26115 24.1277 2.18338 24.0706C2.10561 24.0136 2.04811 23.9331 2.01925 23.8411C1.9904 23.749 1.99171 23.6501 2.02299 23.5589C2.05427 23.4676 2.11389 23.3887 2.19315 23.3337C2.29451 23.2634 2.39875 23.193 2.50305 23.1246C2.55275 23.092 2.6084 23.0695 2.6668 23.0583C2.7252 23.0472 2.78522 23.0477 2.84344 23.0598C2.90165 23.0719 2.95691 23.0953 3.00607 23.1287C3.05523 23.1622 3.09732 23.205 3.12994 23.2547C3.16257 23.3044 3.18508 23.36 3.1962 23.4184C3.20731 23.4768 3.20682 23.5368 3.19474 23.5951C3.18266 23.6533 3.15923 23.7085 3.1258 23.7577C3.09236 23.8068 3.04957 23.8489 2.99987 23.8816C2.90216 23.9457 2.8053 24.011 2.7093 24.0777C2.63366 24.1303 2.54373 24.1584 2.4516 24.1584ZM2.75102 4.94968C2.6629 4.94971 2.57671 4.9239 2.50311 4.87545C2.3989 4.80705 2.29557 4.73732 2.19315 4.66627C2.09721 4.59674 2.03235 4.49238 2.01248 4.37558C1.9926 4.25877 2.0193 4.13884 2.08684 4.04149C2.15438 3.94415 2.25739 3.87715 2.37376 3.85488C2.49013 3.83261 2.61059 3.85684 2.7093 3.92236C2.8053 3.98895 2.90214 4.0543 2.99981 4.11842C3.08131 4.1719 3.14337 4.25027 3.17676 4.34185C3.21015 4.43344 3.21308 4.53336 3.18513 4.62675C3.15718 4.72014 3.09984 4.80201 3.02162 4.86019C2.94341 4.91838 2.8485 4.94976 2.75102 4.94968ZM18.5833 7.25757H17.8431C17.7231 7.25757 17.6079 7.20988 17.523 7.12498C17.4381 7.04009 17.3904 6.92494 17.3904 6.80488C17.3904 6.68482 17.4381 6.56967 17.523 6.48478C17.6079 6.39988 17.7231 6.35218 17.8431 6.35218H18.5833C18.7021 6.3541 18.8154 6.40263 18.8988 6.48732C18.9821 6.57201 19.0288 6.68606 19.0288 6.80488C19.0288 6.9237 18.9821 7.03775 18.8988 7.12244C18.8154 7.20713 18.7021 7.25566 18.5833 7.25757ZM15.8693 7.25757H15.1292C15.0091 7.25757 14.894 7.20988 14.8091 7.12498C14.7242 7.04009 14.6765 6.92494 14.6765 6.80488C14.6765 6.68482 14.7242 6.56967 14.8091 6.48478C14.894 6.39988 15.0091 6.35218 15.1292 6.35218H15.8693C15.9881 6.3541 16.1014 6.40263 16.1848 6.48732C16.2681 6.57201 16.3148 6.68606 16.3148 6.80488C16.3148 6.9237 16.2681 7.03775 16.1848 7.12244C16.1014 7.20713 15.9881 7.25566 15.8693 7.25757ZM13.1554 7.25757H12.4152C12.2951 7.25757 12.18 7.20988 12.0951 7.12498C12.0102 7.04009 11.9625 6.92494 11.9625 6.80488C11.9625 6.68482 12.0102 6.56967 12.0951 6.48478C12.18 6.39988 12.2951 6.35218 12.4152 6.35218H13.1554C13.2755 6.35218 13.3906 6.39988 13.4755 6.48478C13.5604 6.56967 13.6081 6.68482 13.6081 6.80488C13.6081 6.92494 13.5604 7.04009 13.4755 7.12498C13.3906 7.20988 13.2755 7.25757 13.1554 7.25757ZM10.4415 7.25746H10.4396C10.1851 7.2564 9.93072 7.24882 9.67662 7.23472C9.61726 7.23142 9.55913 7.21646 9.50555 7.19069C9.45198 7.16492 9.404 7.12885 9.36436 7.08454C9.32472 7.04023 9.2942 6.98854 9.27454 6.93244C9.25488 6.87633 9.24646 6.8169 9.24977 6.75754C9.26366 6.50793 9.47805 6.3172 9.72696 6.33068C9.96403 6.34386 10.205 6.35107 10.4433 6.35201C10.5027 6.35225 10.5615 6.36419 10.6164 6.38717C10.6712 6.41014 10.721 6.44369 10.7629 6.4859C10.8047 6.52812 10.8379 6.57816 10.8604 6.63318C10.8829 6.68821 10.8944 6.74713 10.8941 6.80658C10.8937 6.92632 10.8458 7.04099 10.7609 7.12549C10.6761 7.20999 10.5612 7.25744 10.4415 7.25746ZM20.5572 7.25746C20.438 7.25634 20.3241 7.20827 20.2401 7.12367C20.1561 7.03907 20.1089 6.92477 20.1087 6.80557C20.1084 6.68638 20.1552 6.5719 20.2389 6.48698C20.3225 6.40207 20.4363 6.35357 20.5555 6.35201C20.7945 6.35104 21.0334 6.34395 21.2721 6.33074C21.5204 6.31703 21.7354 6.50798 21.7492 6.75765C21.763 7.00732 21.572 7.2209 21.3223 7.23478C21.0692 7.24884 20.8125 7.25646 20.559 7.25746H20.5572ZM23.2536 6.98974C23.1412 6.98945 23.033 6.94743 22.95 6.87183C22.8669 6.79623 22.8149 6.69245 22.804 6.58065C22.7932 6.46886 22.8243 6.35702 22.8913 6.26686C22.9583 6.17671 23.0564 6.11467 23.1665 6.09279C23.4009 6.04658 23.6339 5.99426 23.8655 5.93588C23.9813 5.9084 24.1032 5.92759 24.2049 5.9893C24.3066 6.05101 24.38 6.15028 24.4091 6.26564C24.4382 6.381 24.4207 6.50317 24.3604 6.60575C24.3002 6.70833 24.2019 6.78306 24.087 6.81379C23.84 6.87607 23.5915 6.93187 23.3416 6.98113C23.3126 6.98684 23.2831 6.98972 23.2536 6.98974ZM7.74549 6.98957C7.71643 6.98957 7.68701 6.98675 7.65742 6.98095C7.40759 6.93165 7.15909 6.87583 6.91217 6.81355C6.79576 6.78417 6.69579 6.70974 6.63426 6.60665C6.57272 6.50355 6.55466 6.38024 6.58405 6.26383C6.59859 6.20618 6.62435 6.15196 6.65985 6.10427C6.69534 6.05658 6.73989 6.01635 6.79094 5.98587C6.84198 5.9554 6.89853 5.93528 6.95736 5.92666C7.01618 5.91804 7.07613 5.92109 7.13377 5.93564C7.36532 5.99404 7.59834 6.04638 7.83262 6.09261C7.9428 6.11449 8.04092 6.17654 8.10791 6.26671C8.1749 6.35688 8.20598 6.46873 8.19512 6.58054C8.18426 6.69234 8.13223 6.79612 8.04914 6.87171C7.96605 6.9473 7.85782 6.9893 7.74549 6.98957ZM25.85 6.21209C25.745 6.21207 25.6434 6.17561 25.5623 6.10895C25.4813 6.04228 25.4259 5.94954 25.4057 5.84658C25.3855 5.74362 25.4016 5.63683 25.4514 5.54446C25.5012 5.45209 25.5815 5.37987 25.6786 5.34015C25.8996 5.24986 26.1182 5.15377 26.3342 5.05199C26.4425 5.00264 26.5659 4.99795 26.6777 5.03893C26.7895 5.07991 26.8806 5.16326 26.9314 5.27093C26.9821 5.37861 26.9885 5.50195 26.949 5.61425C26.9095 5.72655 26.8273 5.81877 26.7203 5.87095C26.4899 5.97959 26.2567 6.08211 26.0209 6.1784C25.9666 6.20059 25.9086 6.21204 25.85 6.21209ZM5.14914 6.21174C5.09046 6.21171 5.03235 6.20025 4.97805 6.17798C4.74232 6.08163 4.50915 5.97911 4.27879 5.87054C4.17179 5.81836 4.08965 5.72614 4.05015 5.61384C4.01065 5.50154 4.01697 5.3782 4.06774 5.27052C4.11851 5.16285 4.20964 5.0795 4.32141 5.03852C4.43318 4.99754 4.55659 5.00223 4.66493 5.05158C4.88091 5.15335 5.09952 5.24945 5.32053 5.3398C5.37556 5.36229 5.42563 5.3954 5.46787 5.43724C5.5101 5.47908 5.54368 5.52883 5.56669 5.58365C5.5897 5.63846 5.60169 5.69728 5.60197 5.75673C5.60225 5.81618 5.59082 5.8751 5.56832 5.93013C5.53433 6.0134 5.47631 6.08466 5.40165 6.13481C5.32699 6.18497 5.23908 6.21175 5.14914 6.21174ZM28.249 4.94963C28.1515 4.94972 28.0566 4.91834 27.9783 4.86016C27.9001 4.80198 27.8428 4.72011 27.8148 4.62671C27.7868 4.53332 27.7898 4.4334 27.8232 4.34181C27.8566 4.25021 27.9186 4.17185 28.0001 4.11836C28.0978 4.05425 28.1947 3.98887 28.2907 3.92224C28.3395 3.88744 28.3947 3.86268 28.4532 3.84939C28.5116 3.83611 28.5721 3.83456 28.6312 3.84485C28.6903 3.85513 28.7467 3.87704 28.7972 3.9093C28.8477 3.94157 28.8913 3.98354 28.9255 4.03279C28.9597 4.08204 28.9837 4.13759 28.9963 4.19621C29.0088 4.25483 29.0096 4.31535 28.9985 4.37427C28.9875 4.43319 28.9649 4.48933 28.932 4.53944C28.8991 4.58954 28.8565 4.63261 28.8068 4.66615C28.7055 4.73646 28.6012 4.80683 28.4969 4.87527C28.4233 4.9238 28.3371 4.94966 28.249 4.94963Z" fill="white"/>
</svg>
